<?xml version="1.0" standalone="no"?>
<!DOCTYPE svg PUBLIC "-//W3C//DTD SVG 20010904//EN"
 "http://www.w3.org/TR/2001/REC-SVG-20010904/DTD/svg10.dtd">
<svg version="1.0" xmlns="http://www.w3.org/2000/svg"
 width="500.000000pt" height="500.000000pt" viewBox="0 0 500.000000 500.000000"
 preserveAspectRatio="xMidYMid meet">

<g transform="translate(0.000000,500.000000) scale(0.100000,-0.100000)"
fill="#000000" stroke="none">
<path d="M2370 4169 c-327 -38 -623 -154 -865 -338 -271 -207 -485 -512 -586
-837 -52 -168 -62 -248 -63 -494 -1 -212 1 -245 22 -339 26 -114 90 -307 116
-347 17 -24 17 -24 47 -7 19 11 28 24 25 33 -3 8 -21 58 -41 110 -152 391
-129 864 60 1242 227 453 587 739 1085 863 84 21 139 28 270 32 280 9 416 -14
705 -121 38 -14 41 -13 63 7 12 11 22 26 22 33 0 14 -174 84 -268 109 -98 25
-210 44 -327 55 -123 11 -158 11 -265 -1z"/>
<path d="M3311 3934 c-19 -8 -87 -66 -151 -129 -64 -63 -123 -115 -131 -115
-9 0 -43 11 -77 25 -164 67 -434 93 -627 60 -55 -9 -114 -19 -130 -22 -25 -4
-40 3 -80 36 -27 23 -56 41 -65 41 -8 0 -35 -27 -60 -59 -209 -269 -553 -690
-565 -690 -6 -1 -28 22 -49 49 -21 28 -42 50 -46 50 -10 0 -24 -57 -101 -420
-11 -52 -30 -137 -41 -188 -11 -51 -18 -95 -16 -98 3 -2 27 6 54 20 27 13 121
54 209 91 314 130 350 145 365 155 12 8 5 19 -38 62 -28 30 -52 57 -52 61 0 5
15 27 33 50 35 45 265 325 282 343 11 12 71 81 203 234 50 58 91 113 92 122 0
10 -16 28 -35 40 -80 52 -21 71 225 72 134 1 195 -4 260 -17 93 -20 188 -51
204 -67 6 -6 -26 -46 -91 -113 -122 -127 -145 -171 -151 -283 -4 -69 0 -99 27
-195 17 -63 38 -139 46 -169 8 -30 21 -79 29 -107 8 -29 12 -55 8 -57 -11 -6
-353 83 -447 117 -79 28 -122 30 -168 8 -56 -27 -526 -499 -558 -561 -21 -39
-24 -59 -24 -145 1 -90 6 -119 53 -284 54 -192 61 -231 40 -231 -16 0 -221 55
-386 104 -146 42 -187 45 -233 13 -19 -13 -134 -122 -257 -243 -180 -177 -222
-224 -222 -245 0 -52 45 -51 144 1 41 22 82 40 90 40 20 0 237 -64 506 -150
255 -81 278 -85 322 -67 18 8 86 68 150 135 l116 120 91 -34 c158 -60 263 -78
456 -78 177 -1 281 13 404 55 74 26 86 24 135 -16 24 -19 47 -35 52 -35 9 1
73 84 251 330 165 227 337 450 348 450 5 0 30 -23 54 -51 24 -27 46 -48 49
-44 3 3 18 76 33 163 15 86 40 225 54 307 37 200 43 240 41 243 -2 2 -478
-222 -580 -273 -22 -11 -41 -25 -43 -31 -2 -6 19 -29 47 -50 27 -21 50 -44 50
-51 0 -7 -40 -68 -90 -136 -83 -113 -141 -189 -390 -507 -52 -67 -96 -127 -98
-135 -2 -7 17 -27 42 -45 25 -17 46 -37 46 -44 0 -14 -106 -48 -204 -66 -91
-16 -334 -13 -424 6 -114 23 -262 74 -262 91 0 8 30 46 68 86 181 193 220 299
172 472 -12 44 -35 120 -52 168 -16 49 -38 117 -47 153 l-18 64 23 0 c12 0 92
-22 176 -49 255 -82 360 -111 402 -111 39 0 46 6 263 223 227 225 309 325 344
418 35 92 25 156 -70 452 -43 135 -48 157 -30 157 5 0 72 -20 147 -44 289 -94
369 -116 419 -116 l50 0 242 242 c136 136 241 249 241 259 0 24 -35 43 -57 30
-10 -5 -30 -23 -46 -40 -30 -35 -34 -36 -74 -20 -15 6 -158 46 -318 90 -159
44 -335 93 -389 109 -113 34 -119 35 -165 14z m188 -103 c53 -17 139 -41 191
-55 187 -50 452 -124 456 -129 3 -2 -64 -75 -147 -161 -114 -118 -158 -156
-176 -156 -23 0 -772 226 -783 236 -2 3 63 70 145 149 173 167 160 163 314
116z m-1351 -151 c44 -36 81 -70 81 -75 1 -6 -92 -121 -206 -256 -284 -335
-380 -456 -387 -487 -4 -22 2 -33 29 -60 19 -18 35 -34 35 -36 0 -1 -46 -22
-102 -46 -57 -24 -154 -65 -217 -92 -63 -26 -116 -46 -119 -44 -3 4 81 406 93
443 3 9 14 7 38 -7 20 -12 42 -18 51 -14 10 4 77 80 149 169 304 373 452 558
456 567 5 13 9 10 99 -62z m979 -266 c31 -26 42 -44 60 -105 11 -41 39 -131
62 -200 53 -167 58 -210 34 -275 -21 -53 -87 -157 -120 -186 -18 -16 -24 -16
-113 8 -52 14 -99 29 -103 33 -14 14 -137 491 -137 533 0 88 37 163 100 206
30 21 44 23 107 20 62 -3 76 -7 110 -34z m-635 -693 c95 -27 250 -70 343 -96
213 -58 235 -65 235 -73 0 -4 -69 -75 -152 -159 -100 -100 -160 -153 -174
-153 -11 0 -182 50 -380 111 -197 61 -369 114 -381 116 -13 3 -22 8 -22 12 1
3 68 70 149 149 125 120 152 142 178 142 17 0 109 -22 204 -49z m1349 -277
c-25 -148 -52 -303 -62 -351 l-10 -52 -34 20 c-27 16 -38 18 -55 9 -11 -6
-147 -180 -300 -386 -154 -206 -283 -374 -287 -374 -12 0 -172 125 -172 135 0
6 63 91 140 190 78 99 155 198 173 221 17 23 65 86 106 140 157 205 167 231
108 278 -18 14 -30 28 -26 31 8 8 422 203 426 200 2 -1 -2 -29 -7 -61z m-1809
-121 c28 -20 46 -42 52 -64 5 -19 34 -110 64 -204 66 -208 70 -269 27 -355
-31 -61 -105 -160 -119 -160 -5 0 -53 12 -107 26 l-97 26 -46 177 c-26 97 -55
199 -64 226 -23 69 -22 209 1 252 41 78 106 115 189 110 45 -3 67 -10 100 -34z
m-728 -668 c45 -14 214 -62 376 -106 162 -44 297 -83 300 -85 2 -3 -65 -74
-150 -159 -176 -176 -165 -171 -290 -131 -41 13 -151 48 -245 76 -93 29 -228
70 -299 93 l-128 41 150 148 c170 168 158 163 286 123z"/>
<path d="M3977 3227 l-28 -22 29 -65 c42 -91 77 -203 104 -328 20 -93 23 -135
23 -317 -1 -251 -18 -351 -100 -575 -72 -197 -259 -465 -427 -612 -308 -268
-653 -397 -1063 -398 -227 0 -424 39 -619 123 l-49 21 -23 -29 c-27 -34 -24
-40 24 -61 240 -102 442 -139 715 -131 451 12 790 157 1133 484 267 255 447
625 485 1001 15 146 5 392 -21 512 -32 149 -128 420 -149 420 -3 0 -19 -10
-34 -23z"/>
</g>
</svg>
